<?xml version="1.0" encoding="utf-8"?>
<svg xmlns="http://www.w3.org/2000/svg" xmlns:xlink="http://www.w3.org/1999/xlink" width="800" height="400" viewBox="0 0 3200 1600">
<defs>
  <clipPath id="clip820">
    <rect x="0" y="0" width="3200" height="1600"/>
  </clipPath>
</defs>
<path clip-path="url(#clip820)" d="M0 1600 L3200 1600 L3200 0 L0 0  Z" fill="#ffffff" fill-rule="evenodd" fill-opacity="1"/>
<defs>
  <clipPath id="clip821">
    <rect x="1863" y="171" width="1227" height="1262"/>
  </clipPath>
</defs>
<path clip-path="url(#clip820)" d="M263.076 1432.1 L1489.45 1432.1 L1489.45 171.344 L263.076 171.344  Z" fill="#ffffff" fill-rule="evenodd" fill-opacity="1"/>
<defs>
  <clipPath id="clip822">
    <rect x="263" y="171" width="1227" height="1262"/>
  </clipPath>
</defs>
<polyline clip-path="url(#clip822)" style="stroke:#000000; stroke-linecap:round; stroke-linejoin:round; stroke-width:2; stroke-opacity:0.1; fill:none" points="573.077,1432.1 573.077,171.344 "/>
<polyline clip-path="url(#clip822)" style="stroke:#000000; stroke-linecap:round; stroke-linejoin:round; stroke-width:2; stroke-opacity:0.1; fill:none" points="1179.45,1432.1 1179.45,171.344 "/>
<polyline clip-path="url(#clip822)" style="stroke:#000000; stroke-linecap:round; stroke-linejoin:round; stroke-width:2; stroke-opacity:0.1; fill:none" points="263.076,1432.1 1489.45,1432.1 "/>
<polyline clip-path="url(#clip822)" style="stroke:#000000; stroke-linecap:round; stroke-linejoin:round; stroke-width:2; stroke-opacity:0.1; fill:none" points="263.076,1187.45 1489.45,1187.45 "/>
<polyline clip-path="url(#clip822)" style="stroke:#000000; stroke-linecap:round; stroke-linejoin:round; stroke-width:2; stroke-opacity:0.1; fill:none" points="263.076,942.806 1489.45,942.806 "/>
<polyline clip-path="url(#clip822)" style="stroke:#000000; stroke-linecap:round; stroke-linejoin:round; stroke-width:2; stroke-opacity:0.1; fill:none" points="263.076,698.161 1489.45,698.161 "/>
<polyline clip-path="url(#clip822)" style="stroke:#000000; stroke-linecap:round; stroke-linejoin:round; stroke-width:2; stroke-opacity:0.1; fill:none" points="263.076,453.517 1489.45,453.517 "/>
<polyline clip-path="url(#clip822)" style="stroke:#000000; stroke-linecap:round; stroke-linejoin:round; stroke-width:2; stroke-opacity:0.1; fill:none" points="263.076,208.872 1489.45,208.872 "/>
<polyline clip-path="url(#clip820)" style="stroke:#000000; stroke-linecap:round; stroke-linejoin:round; stroke-width:4; stroke-opacity:1; fill:none" points="263.076,1432.1 1489.45,1432.1 "/>
<polyline clip-path="url(#clip820)" style="stroke:#000000; stroke-linecap:round; stroke-linejoin:round; stroke-width:4; stroke-opacity:1; fill:none" points="573.077,1432.1 573.077,1413.2 "/>
<polyline clip-path="url(#clip820)" style="stroke:#000000; stroke-linecap:round; stroke-linejoin:round; stroke-width:4; stroke-opacity:1; fill:none" points="1179.45,1432.1 1179.45,1413.2 "/>
<path clip-path="url(#clip820)" d="M571.978 1469 L571.978 1473.93 Q569.617 1471.73 566.932 1470.64 Q564.27 1469.55 561.26 1469.55 Q555.334 1469.55 552.186 1473.19 Q549.038 1476.8 549.038 1483.65 Q549.038 1490.48 552.186 1494.11 Q555.334 1497.72 561.26 1497.72 Q564.27 1497.72 566.932 1496.64 Q569.617 1495.55 571.978 1493.35 L571.978 1498.23 Q569.524 1499.9 566.769 1500.73 Q564.038 1501.57 560.982 1501.57 Q553.135 1501.57 548.621 1496.78 Q544.108 1491.96 544.108 1483.65 Q544.108 1475.32 548.621 1470.53 Q553.135 1465.71 560.982 1465.71 Q564.084 1465.71 566.816 1466.54 Q569.57 1467.35 571.978 1469 Z" fill="#000000" fill-rule="nonzero" fill-opacity="1" /><path clip-path="url(#clip820)" d="M583.135 1497.01 L583.135 1510.76 L578.853 1510.76 L578.853 1474.97 L583.135 1474.97 L583.135 1478.91 Q584.478 1476.59 586.515 1475.48 Q588.575 1474.34 591.422 1474.34 Q596.144 1474.34 599.084 1478.09 Q602.047 1481.84 602.047 1487.96 Q602.047 1494.07 599.084 1497.82 Q596.144 1501.57 591.422 1501.57 Q588.575 1501.57 586.515 1500.46 Q584.478 1499.32 583.135 1497.01 M597.626 1487.96 Q597.626 1483.26 595.681 1480.59 Q593.76 1477.91 590.38 1477.91 Q587.001 1477.91 585.056 1480.59 Q583.135 1483.26 583.135 1487.96 Q583.135 1492.66 585.056 1495.34 Q587.001 1498 590.38 1498 Q593.76 1498 595.681 1495.34 Q597.626 1492.66 597.626 1487.96 Z" fill="#000000" fill-rule="nonzero" fill-opacity="1" /><path clip-path="url(#clip820)" d="M1178.78 1469 L1178.78 1473.93 Q1176.42 1471.73 1173.73 1470.64 Q1171.07 1469.55 1168.06 1469.55 Q1162.13 1469.55 1158.99 1473.19 Q1155.84 1476.8 1155.84 1483.65 Q1155.84 1490.48 1158.99 1494.11 Q1162.13 1497.72 1168.06 1497.72 Q1171.07 1497.72 1173.73 1496.64 Q1176.42 1495.55 1178.78 1493.35 L1178.78 1498.23 Q1176.32 1499.9 1173.57 1500.73 Q1170.84 1501.57 1167.78 1501.57 Q1159.94 1501.57 1155.42 1496.78 Q1150.91 1491.96 1150.91 1483.65 Q1150.91 1475.32 1155.42 1470.53 Q1159.94 1465.71 1167.78 1465.71 Q1170.88 1465.71 1173.62 1466.54 Q1176.37 1467.35 1178.78 1469 Z" fill="#000000" fill-rule="nonzero" fill-opacity="1" /><path clip-path="url(#clip820)" d="M1182.76 1474.97 L1187.27 1474.97 L1195.38 1496.73 L1203.48 1474.97 L1207.99 1474.97 L1198.27 1500.9 L1192.48 1500.9 L1182.76 1474.97 Z" fill="#000000" fill-rule="nonzero" fill-opacity="1" /><polyline clip-path="url(#clip820)" style="stroke:#000000; stroke-linecap:round; stroke-linejoin:round; stroke-width:4; stroke-opacity:1; fill:none" points="263.076,1432.1 263.076,171.344 "/>
<polyline clip-path="url(#clip820)" style="stroke:#000000; stroke-linecap:round; stroke-linejoin:round; stroke-width:4; stroke-opacity:1; fill:none" points="263.076,1432.1 281.973,1432.1 "/>
<polyline clip-path="url(#clip820)" style="stroke:#000000; stroke-linecap:round; stroke-linejoin:round; stroke-width:4; stroke-opacity:1; fill:none" points="263.076,1187.45 281.973,1187.45 "/>
<polyline clip-path="url(#clip820)" style="stroke:#000000; stroke-linecap:round; stroke-linejoin:round; stroke-width:4; stroke-opacity:1; fill:none" points="263.076,942.806 281.973,942.806 "/>
<polyline clip-path="url(#clip820)" style="stroke:#000000; stroke-linecap:round; stroke-linejoin:round; stroke-width:4; stroke-opacity:1; fill:none" points="263.076,698.161 281.973,698.161 "/>
<polyline clip-path="url(#clip820)" style="stroke:#000000; stroke-linecap:round; stroke-linejoin:round; stroke-width:4; stroke-opacity:1; fill:none" points="263.076,453.517 281.973,453.517 "/>
<polyline clip-path="url(#clip820)" style="stroke:#000000; stroke-linecap:round; stroke-linejoin:round; stroke-width:4; stroke-opacity:1; fill:none" points="263.076,208.872 281.973,208.872 "/>
<path clip-path="url(#clip820)" d="M203.131 1417.89 Q199.52 1417.89 197.692 1421.46 Q195.886 1425 195.886 1432.13 Q195.886 1439.24 197.692 1442.8 Q199.52 1446.34 203.131 1446.34 Q206.766 1446.34 208.571 1442.8 Q210.4 1439.24 210.4 1432.13 Q210.4 1425 208.571 1421.46 Q206.766 1417.89 203.131 1417.89 M203.131 1414.19 Q208.941 1414.19 211.997 1418.8 Q215.076 1423.38 215.076 1432.13 Q215.076 1440.86 211.997 1445.46 Q208.941 1450.05 203.131 1450.05 Q197.321 1450.05 194.242 1445.46 Q191.187 1440.86 191.187 1432.13 Q191.187 1423.38 194.242 1418.8 Q197.321 1414.19 203.131 1414.19 Z" fill="#000000" fill-rule="nonzero" fill-opacity="1" /><path clip-path="url(#clip820)" d="M194.173 1170.17 L212.529 1170.17 L212.529 1174.11 L198.455 1174.11 L198.455 1182.58 Q199.474 1182.23 200.492 1182.07 Q201.511 1181.88 202.529 1181.88 Q208.316 1181.88 211.696 1185.06 Q215.076 1188.23 215.076 1193.64 Q215.076 1199.22 211.603 1202.32 Q208.131 1205.4 201.812 1205.4 Q199.636 1205.4 197.367 1205.03 Q195.122 1204.66 192.715 1203.92 L192.715 1199.22 Q194.798 1200.36 197.02 1200.91 Q199.242 1201.47 201.719 1201.47 Q205.724 1201.47 208.062 1199.36 Q210.4 1197.25 210.4 1193.64 Q210.4 1190.03 208.062 1187.93 Q205.724 1185.82 201.719 1185.82 Q199.844 1185.82 197.969 1186.24 Q196.117 1186.65 194.173 1187.53 L194.173 1170.17 Z" fill="#000000" fill-rule="nonzero" fill-opacity="1" /><path clip-path="url(#clip820)" d="M163.78 956.151 L171.419 956.151 L171.419 929.785 L163.108 931.452 L163.108 927.193 L171.372 925.526 L176.048 925.526 L176.048 956.151 L183.687 956.151 L183.687 960.086 L163.78 960.086 L163.78 956.151 Z" fill="#000000" fill-rule="nonzero" fill-opacity="1" /><path clip-path="url(#clip820)" d="M203.131 928.605 Q199.52 928.605 197.692 932.17 Q195.886 935.711 195.886 942.841 Q195.886 949.947 197.692 953.512 Q199.52 957.054 203.131 957.054 Q206.766 957.054 208.571 953.512 Q210.4 949.947 210.4 942.841 Q210.4 935.711 208.571 932.17 Q206.766 928.605 203.131 928.605 M203.131 924.901 Q208.941 924.901 211.997 929.508 Q215.076 934.091 215.076 942.841 Q215.076 951.568 211.997 956.174 Q208.941 960.757 203.131 960.757 Q197.321 960.757 194.242 956.174 Q191.187 951.568 191.187 942.841 Q191.187 934.091 194.242 929.508 Q197.321 924.901 203.131 924.901 Z" fill="#000000" fill-rule="nonzero" fill-opacity="1" /><path clip-path="url(#clip820)" d="M164.775 711.506 L172.414 711.506 L172.414 685.141 L164.104 686.807 L164.104 682.548 L172.368 680.881 L177.043 680.881 L177.043 711.506 L184.682 711.506 L184.682 715.441 L164.775 715.441 L164.775 711.506 Z" fill="#000000" fill-rule="nonzero" fill-opacity="1" /><path clip-path="url(#clip820)" d="M194.173 680.881 L212.529 680.881 L212.529 684.817 L198.455 684.817 L198.455 693.289 Q199.474 692.942 200.492 692.779 Q201.511 692.594 202.529 692.594 Q208.316 692.594 211.696 695.766 Q215.076 698.937 215.076 704.353 Q215.076 709.932 211.603 713.034 Q208.131 716.113 201.812 716.113 Q199.636 716.113 197.367 715.742 Q195.122 715.372 192.715 714.631 L192.715 709.932 Q194.798 711.066 197.02 711.622 Q199.242 712.178 201.719 712.178 Q205.724 712.178 208.062 710.071 Q210.4 707.965 210.4 704.353 Q210.4 700.742 208.062 698.636 Q205.724 696.529 201.719 696.529 Q199.844 696.529 197.969 696.946 Q196.117 697.363 194.173 698.242 L194.173 680.881 Z" fill="#000000" fill-rule="nonzero" fill-opacity="1" /><path clip-path="url(#clip820)" d="M166.997 466.861 L183.317 466.861 L183.317 470.797 L161.372 470.797 L161.372 466.861 Q164.034 464.107 168.618 459.477 Q173.224 454.824 174.405 453.482 Q176.65 450.959 177.53 449.223 Q178.432 447.463 178.432 445.774 Q178.432 443.019 176.488 441.283 Q174.567 439.547 171.465 439.547 Q169.266 439.547 166.812 440.311 Q164.382 441.075 161.604 442.625 L161.604 437.903 Q164.428 436.769 166.882 436.19 Q169.335 435.612 171.372 435.612 Q176.743 435.612 179.937 438.297 Q183.131 440.982 183.131 445.473 Q183.131 447.602 182.321 449.524 Q181.534 451.422 179.428 454.014 Q178.849 454.686 175.747 457.903 Q172.645 461.098 166.997 466.861 Z" fill="#000000" fill-rule="nonzero" fill-opacity="1" /><path clip-path="url(#clip820)" d="M203.131 439.315 Q199.52 439.315 197.692 442.88 Q195.886 446.422 195.886 453.551 Q195.886 460.658 197.692 464.223 Q199.52 467.764 203.131 467.764 Q206.766 467.764 208.571 464.223 Q210.4 460.658 210.4 453.551 Q210.4 446.422 208.571 442.88 Q206.766 439.315 203.131 439.315 M203.131 435.612 Q208.941 435.612 211.997 440.218 Q215.076 444.801 215.076 453.551 Q215.076 462.278 211.997 466.885 Q208.941 471.468 203.131 471.468 Q197.321 471.468 194.242 466.885 Q191.187 462.278 191.187 453.551 Q191.187 444.801 194.242 440.218 Q197.321 435.612 203.131 435.612 Z" fill="#000000" fill-rule="nonzero" fill-opacity="1" /><path clip-path="url(#clip820)" d="M167.993 222.217 L184.312 222.217 L184.312 226.152 L162.368 226.152 L162.368 222.217 Q165.03 219.462 169.613 214.832 Q174.219 210.18 175.4 208.837 Q177.645 206.314 178.525 204.578 Q179.428 202.819 179.428 201.129 Q179.428 198.374 177.483 196.638 Q175.562 194.902 172.46 194.902 Q170.261 194.902 167.807 195.666 Q165.377 196.43 162.599 197.981 L162.599 193.258 Q165.423 192.124 167.877 191.546 Q170.331 190.967 172.368 190.967 Q177.738 190.967 180.932 193.652 Q184.127 196.337 184.127 200.828 Q184.127 202.957 183.317 204.879 Q182.53 206.777 180.423 209.369 Q179.844 210.041 176.743 213.258 Q173.641 216.453 167.993 222.217 Z" fill="#000000" fill-rule="nonzero" fill-opacity="1" /><path clip-path="url(#clip820)" d="M194.173 191.592 L212.529 191.592 L212.529 195.527 L198.455 195.527 L198.455 203.999 Q199.474 203.652 200.492 203.49 Q201.511 203.305 202.529 203.305 Q208.316 203.305 211.696 206.476 Q215.076 209.647 215.076 215.064 Q215.076 220.643 211.603 223.744 Q208.131 226.823 201.812 226.823 Q199.636 226.823 197.367 226.453 Q195.122 226.082 192.715 225.342 L192.715 220.643 Q194.798 221.777 197.02 222.332 Q199.242 222.888 201.719 222.888 Q205.724 222.888 208.062 220.781 Q210.4 218.675 210.4 215.064 Q210.4 211.453 208.062 209.346 Q205.724 207.24 201.719 207.24 Q199.844 207.24 197.969 207.657 Q196.117 208.073 194.173 208.953 L194.173 191.592 Z" fill="#000000" fill-rule="nonzero" fill-opacity="1" /><path clip-path="url(#clip820)" d="M49.5911 990.67 L49.5911 984.782 L78.8415 984.782 L63.4683 967.308 L63.4683 959.828 L80.1465 978.734 L99.1163 959.033 L99.1163 966.671 L81.7061 984.782 L99.1163 984.782 L99.1163 990.67 L49.5911 990.67 Z" fill="#000000" fill-rule="nonzero" fill-opacity="1" /><path clip-path="url(#clip820)" d="M64.837 927.045 L70.3115 927.045 Q68.9428 929.527 68.2744 932.042 Q67.5742 934.525 67.5742 937.071 Q67.5742 942.768 71.2027 945.919 Q74.7993 949.07 81.3241 949.07 Q87.849 949.07 91.4774 945.919 Q95.0741 942.768 95.0741 937.071 Q95.0741 934.525 94.4057 932.042 Q93.7054 929.527 92.3368 927.045 L97.7477 927.045 Q98.8935 929.496 99.4664 932.137 Q100.039 934.747 100.039 937.707 Q100.039 945.76 94.9786 950.502 Q89.9178 955.245 81.3241 955.245 Q72.6031 955.245 67.606 950.471 Q62.609 945.665 62.609 937.325 Q62.609 934.62 63.1819 932.042 Q63.723 929.464 64.837 927.045 Z" fill="#000000" fill-rule="nonzero" fill-opacity="1" /><path clip-path="url(#clip820)" d="M81.1968 900.659 Q81.1968 907.757 82.8201 910.494 Q84.4433 913.231 88.3582 913.231 Q91.4774 913.231 93.3235 911.194 Q95.1377 909.125 95.1377 905.592 Q95.1377 900.723 91.7002 897.794 Q88.2309 894.834 82.5018 894.834 L81.1968 894.834 L81.1968 900.659 M78.7779 888.978 L99.1163 888.978 L99.1163 894.834 L93.7054 894.834 Q96.9519 896.84 98.5115 899.831 Q100.039 902.823 100.039 907.152 Q100.039 912.627 96.9838 915.873 Q93.8964 919.088 88.7402 919.088 Q82.7246 919.088 79.669 915.077 Q76.6135 911.035 76.6135 903.046 L76.6135 894.834 L76.0406 894.834 Q71.9984 894.834 69.8022 897.508 Q67.5742 900.15 67.5742 904.956 Q67.5742 908.011 68.3063 910.908 Q69.0383 913.804 70.5024 916.478 L65.0916 916.478 Q63.8503 913.263 63.2455 910.239 Q62.609 907.216 62.609 904.351 Q62.609 896.617 66.6194 892.797 Q70.6297 888.978 78.7779 888.978 Z" fill="#000000" fill-rule="nonzero" fill-opacity="1" /><path clip-path="url(#clip820)" d="M49.5911 876.915 L49.5911 871.058 L99.1163 871.058 L99.1163 876.915 L49.5911 876.915 Z" fill="#000000" fill-rule="nonzero" fill-opacity="1" /><path clip-path="url(#clip820)" d="M51.5963 848.397 L51.5963 842.986 L105.164 859.537 L105.164 864.947 L51.5963 848.397 Z" fill="#000000" fill-rule="nonzero" fill-opacity="1" /><path clip-path="url(#clip820)" d="M49.6547 822.775 Q56.9753 827.04 64.1367 829.108 Q71.2981 831.177 78.6505 831.177 Q86.0029 831.177 93.228 829.108 Q100.421 827.008 107.71 822.775 L107.71 827.867 Q100.23 832.641 93.0052 835.029 Q85.7801 837.384 78.6505 837.384 Q71.5528 837.384 64.3595 835.029 Q57.1663 832.673 49.6547 827.867 L49.6547 822.775 Z" fill="#000000" fill-rule="nonzero" fill-opacity="1" /><path clip-path="url(#clip820)" d="M70.3115 783.657 Q66.3647 781.461 64.4868 778.406 Q62.609 775.35 62.609 771.212 Q62.609 765.642 66.5239 762.619 Q70.4069 759.595 77.6002 759.595 L99.1163 759.595 L99.1163 765.483 L77.7912 765.483 Q72.6668 765.483 70.1841 767.297 Q67.7015 769.112 67.7015 772.836 Q67.7015 777.387 70.7252 780.029 Q73.7489 782.671 78.9688 782.671 L99.1163 782.671 L99.1163 788.559 L77.7912 788.559 Q72.6349 788.559 70.1841 790.373 Q67.7015 792.187 67.7015 795.975 Q67.7015 800.463 70.7571 803.105 Q73.7808 805.746 78.9688 805.746 L99.1163 805.746 L99.1163 811.635 L63.4683 811.635 L63.4683 805.746 L69.0065 805.746 Q65.7282 803.741 64.1686 800.94 Q62.609 798.139 62.609 794.288 Q62.609 790.405 64.5823 787.7 Q66.5557 784.962 70.3115 783.657 Z" fill="#000000" fill-rule="nonzero" fill-opacity="1" /><path clip-path="url(#clip820)" d="M67.5742 734.1 Q67.5742 738.811 71.2663 741.548 Q74.9266 744.285 81.3241 744.285 Q87.7217 744.285 91.4138 741.58 Q95.0741 738.843 95.0741 734.1 Q95.0741 729.421 91.3819 726.684 Q87.6898 723.947 81.3241 723.947 Q74.9903 723.947 71.2981 726.684 Q67.5742 729.421 67.5742 734.1 M62.609 734.1 Q62.609 726.461 67.5742 722.101 Q72.5395 717.74 81.3241 717.74 Q90.077 717.74 95.0741 722.101 Q100.039 726.461 100.039 734.1 Q100.039 741.771 95.0741 746.131 Q90.077 750.46 81.3241 750.46 Q72.5395 750.46 67.5742 746.131 Q62.609 741.771 62.609 734.1 Z" fill="#000000" fill-rule="nonzero" fill-opacity="1" /><path clip-path="url(#clip820)" d="M49.5911 708.033 L49.5911 702.176 L99.1163 702.176 L99.1163 708.033 L49.5911 708.033 Z" fill="#000000" fill-rule="nonzero" fill-opacity="1" /><path clip-path="url(#clip820)" d="M51.5963 668.947 L51.5963 662.518 L71.6801 662.518 L51.5963 641.193 L51.5963 632.917 L73.7489 656.502 L99.1163 631.23 L99.1163 639.697 L76.2316 662.518 L99.1163 662.518 L99.1163 668.947 L51.5963 668.947 Z" fill="#000000" fill-rule="nonzero" fill-opacity="1" /><path clip-path="url(#clip820)" d="M49.6547 627.379 L49.6547 622.287 Q57.1663 617.512 64.3595 615.157 Q71.5528 612.77 78.6505 612.77 Q85.7801 612.77 93.0052 615.157 Q100.23 617.512 107.71 622.287 L107.71 627.379 Q100.421 623.146 93.228 621.077 Q86.0029 618.976 78.6505 618.976 Q71.2981 618.976 64.1367 621.077 Q56.9753 623.146 49.6547 627.379 Z" fill="#000000" fill-rule="nonzero" fill-opacity="1" /><path clip-path="url(#clip820)" d="M555.391 12.096 L563.574 12.096 L563.574 36.8875 L593.308 36.8875 L593.308 12.096 L601.491 12.096 L601.491 72.576 L593.308 72.576 L593.308 43.7741 L563.574 43.7741 L563.574 72.576 L555.391 72.576 L555.391 12.096 Z" fill="#000000" fill-rule="nonzero" fill-opacity="1" /><path clip-path="url(#clip820)" d="M656.259 48.0275 L656.259 51.6733 L621.988 51.6733 Q622.474 59.3701 626.606 63.421 Q630.779 67.4314 638.192 67.4314 Q642.486 67.4314 646.496 66.3781 Q650.547 65.3249 654.517 63.2184 L654.517 70.267 Q650.506 71.9684 646.294 72.8596 Q642.081 73.7508 637.746 73.7508 Q626.89 73.7508 620.53 67.4314 Q614.21 61.1119 614.21 50.3365 Q614.21 39.1965 620.206 32.6746 Q626.242 26.1121 636.45 26.1121 Q645.605 26.1121 650.912 32.0264 Q656.259 37.9003 656.259 48.0275 M648.805 45.84 Q648.724 39.7232 645.362 36.0774 Q642.04 32.4315 636.531 32.4315 Q630.292 32.4315 626.525 35.9558 Q622.798 39.4801 622.231 45.8805 L648.805 45.84 Z" fill="#000000" fill-rule="nonzero" fill-opacity="1" /><path clip-path="url(#clip820)" d="M689.112 49.7694 Q680.078 49.7694 676.594 51.8354 Q673.11 53.9013 673.11 58.8839 Q673.11 62.8538 675.703 65.2034 Q678.336 67.5124 682.833 67.5124 Q689.031 67.5124 692.757 63.1374 Q696.525 58.7219 696.525 51.4303 L696.525 49.7694 L689.112 49.7694 M703.978 46.6907 L703.978 72.576 L696.525 72.576 L696.525 65.6895 Q693.973 69.8214 690.165 71.8063 Q686.357 73.7508 680.848 73.7508 Q673.88 73.7508 669.748 69.8619 Q665.657 65.9325 665.657 59.3701 Q665.657 51.7138 670.761 47.825 Q675.906 43.9361 686.073 43.9361 L696.525 43.9361 L696.525 43.2069 Q696.525 38.0623 693.122 35.2672 Q689.76 32.4315 683.643 32.4315 Q679.754 32.4315 676.068 33.3632 Q672.381 34.295 668.979 36.1584 L668.979 29.2718 Q673.07 27.692 676.918 26.9223 Q680.767 26.1121 684.413 26.1121 Q694.256 26.1121 699.117 31.2163 Q703.978 36.3204 703.978 46.6907 Z" fill="#000000" fill-rule="nonzero" fill-opacity="1" /><path clip-path="url(#clip820)" d="M726.704 14.324 L726.704 27.2059 L742.057 27.2059 L742.057 32.9987 L726.704 32.9987 L726.704 57.6282 Q726.704 63.1779 728.203 64.7578 Q729.742 66.3376 734.401 66.3376 L742.057 66.3376 L742.057 72.576 L734.401 72.576 Q725.772 72.576 722.491 69.3758 Q719.21 66.1351 719.21 57.6282 L719.21 32.9987 L713.741 32.9987 L713.741 27.2059 L719.21 27.2059 L719.21 14.324 L726.704 14.324 Z" fill="#000000" fill-rule="nonzero" fill-opacity="1" /><path clip-path="url(#clip820)" d="M823.845 16.7545 L823.845 25.383 Q819.713 21.5346 815.014 19.6307 Q810.355 17.7268 805.089 17.7268 Q794.719 17.7268 789.209 24.0867 Q783.7 30.4061 783.7 42.3968 Q783.7 54.3469 789.209 60.7069 Q794.719 67.0263 805.089 67.0263 Q810.355 67.0263 815.014 65.1223 Q819.713 63.2184 823.845 59.3701 L823.845 67.9175 Q819.551 70.8341 814.73 72.2924 Q809.95 73.7508 804.603 73.7508 Q790.87 73.7508 782.971 65.3654 Q775.072 56.9395 775.072 42.3968 Q775.072 27.8135 782.971 19.4281 Q790.87 11.0023 804.603 11.0023 Q810.031 11.0023 814.811 12.4606 Q819.632 13.8784 823.845 16.7545 Z" fill="#000000" fill-rule="nonzero" fill-opacity="1" /><path clip-path="url(#clip820)" d="M856.778 49.7694 Q847.745 49.7694 844.261 51.8354 Q840.777 53.9013 840.777 58.8839 Q840.777 62.8538 843.37 65.2034 Q846.003 67.5124 850.5 67.5124 Q856.697 67.5124 860.424 63.1374 Q864.192 58.7219 864.192 51.4303 L864.192 49.7694 L856.778 49.7694 M871.645 46.6907 L871.645 72.576 L864.192 72.576 L864.192 65.6895 Q861.64 69.8214 857.832 71.8063 Q854.024 73.7508 848.515 73.7508 Q841.547 73.7508 837.415 69.8619 Q833.324 65.9325 833.324 59.3701 Q833.324 51.7138 838.428 47.825 Q843.573 43.9361 853.74 43.9361 L864.192 43.9361 L864.192 43.2069 Q864.192 38.0623 860.789 35.2672 Q857.427 32.4315 851.31 32.4315 Q847.421 32.4315 843.735 33.3632 Q840.048 34.295 836.646 36.1584 L836.646 29.2718 Q840.737 27.692 844.585 26.9223 Q848.434 26.1121 852.079 26.1121 Q861.923 26.1121 866.784 31.2163 Q871.645 36.3204 871.645 46.6907 Z" fill="#000000" fill-rule="nonzero" fill-opacity="1" /><path clip-path="url(#clip820)" d="M894.209 65.7705 L894.209 89.8329 L886.715 89.8329 L886.715 27.2059 L894.209 27.2059 L894.209 34.0924 Q896.558 30.0415 900.123 28.0971 Q903.728 26.1121 908.711 26.1121 Q916.975 26.1121 922.12 32.6746 Q927.305 39.2371 927.305 49.9314 Q927.305 60.6258 922.12 67.1883 Q916.975 73.7508 908.711 73.7508 Q903.728 73.7508 900.123 71.8063 Q896.558 69.8214 894.209 65.7705 M919.568 49.9314 Q919.568 41.7081 916.165 37.0496 Q912.803 32.3505 906.888 32.3505 Q900.974 32.3505 897.571 37.0496 Q894.209 41.7081 894.209 49.9314 Q894.209 58.1548 897.571 62.8538 Q900.974 67.5124 906.888 67.5124 Q912.803 67.5124 916.165 62.8538 Q919.568 58.1548 919.568 49.9314 Z" fill="#000000" fill-rule="nonzero" fill-opacity="1" /><path clip-path="url(#clip820)" d="M960.279 49.7694 Q951.246 49.7694 947.762 51.8354 Q944.278 53.9013 944.278 58.8839 Q944.278 62.8538 946.871 65.2034 Q949.504 67.5124 954 67.5124 Q960.198 67.5124 963.925 63.1374 Q967.692 58.7219 967.692 51.4303 L967.692 49.7694 L960.279 49.7694 M975.146 46.6907 L975.146 72.576 L967.692 72.576 L967.692 65.6895 Q965.14 69.8214 961.332 71.8063 Q957.524 73.7508 952.015 73.7508 Q945.048 73.7508 940.916 69.8619 Q936.824 65.9325 936.824 59.3701 Q936.824 51.7138 941.929 47.825 Q947.073 43.9361 957.241 43.9361 L967.692 43.9361 L967.692 43.2069 Q967.692 38.0623 964.289 35.2672 Q960.927 32.4315 954.81 32.4315 Q950.922 32.4315 947.235 33.3632 Q943.549 34.295 940.146 36.1584 L940.146 29.2718 Q944.238 27.692 948.086 26.9223 Q951.934 26.1121 955.58 26.1121 Q965.424 26.1121 970.285 31.2163 Q975.146 36.3204 975.146 46.6907 Z" fill="#000000" fill-rule="nonzero" fill-opacity="1" /><path clip-path="url(#clip820)" d="M1023.15 28.9478 L1023.15 35.9153 Q1019.99 34.1734 1016.79 33.3227 Q1013.63 32.4315 1010.39 32.4315 Q1003.14 32.4315 999.127 37.0496 Q995.117 41.6271 995.117 49.9314 Q995.117 58.2358 999.127 62.8538 Q1003.14 67.4314 1010.39 67.4314 Q1013.63 67.4314 1016.79 66.5807 Q1019.99 65.6895 1023.15 63.9476 L1023.15 70.8341 Q1020.03 72.2924 1016.67 73.0216 Q1013.35 73.7508 1009.58 73.7508 Q999.33 73.7508 993.294 67.3098 Q987.258 60.8689 987.258 49.9314 Q987.258 38.832 993.334 32.472 Q999.451 26.1121 1010.06 26.1121 Q1013.51 26.1121 1016.79 26.8413 Q1020.07 27.5299 1023.15 28.9478 Z" fill="#000000" fill-rule="nonzero" fill-opacity="1" /><path clip-path="url(#clip820)" d="M1036.11 27.2059 L1043.57 27.2059 L1043.57 72.576 L1036.11 72.576 L1036.11 27.2059 M1036.11 9.54393 L1043.57 9.54393 L1043.57 18.9825 L1036.11 18.9825 L1036.11 9.54393 Z" fill="#000000" fill-rule="nonzero" fill-opacity="1" /><path clip-path="url(#clip820)" d="M1066.53 14.324 L1066.53 27.2059 L1081.89 27.2059 L1081.89 32.9987 L1066.53 32.9987 L1066.53 57.6282 Q1066.53 63.1779 1068.03 64.7578 Q1069.57 66.3376 1074.23 66.3376 L1081.89 66.3376 L1081.89 72.576 L1074.23 72.576 Q1065.6 72.576 1062.32 69.3758 Q1059.04 66.1351 1059.04 57.6282 L1059.04 32.9987 L1053.57 32.9987 L1053.57 27.2059 L1059.04 27.2059 L1059.04 14.324 L1066.53 14.324 Z" fill="#000000" fill-rule="nonzero" fill-opacity="1" /><path clip-path="url(#clip820)" d="M1091.69 27.2059 L1099.14 27.2059 L1099.14 72.576 L1091.69 72.576 L1091.69 27.2059 M1091.69 9.54393 L1099.14 9.54393 L1099.14 18.9825 L1091.69 18.9825 L1091.69 9.54393 Z" fill="#000000" fill-rule="nonzero" fill-opacity="1" /><path clip-path="url(#clip820)" d="M1153.55 48.0275 L1153.55 51.6733 L1119.28 51.6733 Q1119.76 59.3701 1123.9 63.421 Q1128.07 67.4314 1135.48 67.4314 Q1139.77 67.4314 1143.79 66.3781 Q1147.84 65.3249 1151.81 63.2184 L1151.81 70.267 Q1147.8 71.9684 1143.58 72.8596 Q1139.37 73.7508 1135.04 73.7508 Q1124.18 73.7508 1117.82 67.4314 Q1111.5 61.1119 1111.5 50.3365 Q1111.5 39.1965 1117.49 32.6746 Q1123.53 26.1121 1133.74 26.1121 Q1142.89 26.1121 1148.2 32.0264 Q1153.55 37.9003 1153.55 48.0275 M1146.09 45.84 Q1146.01 39.7232 1142.65 36.0774 Q1139.33 32.4315 1133.82 32.4315 Q1127.58 32.4315 1123.81 35.9558 Q1120.09 39.4801 1119.52 45.8805 L1146.09 45.84 Z" fill="#000000" fill-rule="nonzero" fill-opacity="1" /><path clip-path="url(#clip820)" d="M1194.7 28.5427 L1194.7 35.5912 Q1191.55 33.9709 1188.14 33.1607 Q1184.74 32.3505 1181.09 32.3505 Q1175.54 32.3505 1172.75 34.0519 Q1169.99 35.7533 1169.99 39.156 Q1169.99 41.7486 1171.98 43.2475 Q1173.96 44.7058 1179.96 46.0426 L1182.51 46.6097 Q1190.45 48.3111 1193.77 51.4303 Q1197.14 54.509 1197.14 60.0587 Q1197.14 66.3781 1192.11 70.0644 Q1187.13 73.7508 1178.38 73.7508 Q1174.73 73.7508 1170.76 73.0216 Q1166.83 72.3329 1162.46 70.9151 L1162.46 63.2184 Q1166.59 65.3654 1170.6 66.4591 Q1174.61 67.5124 1178.54 67.5124 Q1183.81 67.5124 1186.64 65.73 Q1189.48 63.9071 1189.48 60.6258 Q1189.48 57.5877 1187.41 55.9673 Q1185.39 54.3469 1178.46 52.8481 L1175.87 52.2405 Q1168.94 50.7821 1165.86 47.7845 Q1162.78 44.7463 1162.78 39.4801 Q1162.78 33.0797 1167.32 29.5959 Q1171.86 26.1121 1180.2 26.1121 Q1184.33 26.1121 1187.98 26.7198 Q1191.63 27.3274 1194.7 28.5427 Z" fill="#000000" fill-rule="nonzero" fill-opacity="1" /><path clip-path="url(#clip822)" d="M330.529 171.344 L330.529 1432.1 L815.626 1432.1 L815.626 171.344 L330.529 171.344 L330.529 171.344  Z" fill="#4682b4" fill-rule="evenodd" fill-opacity="1"/>
<polyline clip-path="url(#clip822)" style="stroke:#000000; stroke-linecap:round; stroke-linejoin:round; stroke-width:4; stroke-opacity:1; fill:none" points="330.529,171.344 330.529,1432.1 815.626,1432.1 815.626,171.344 330.529,171.344 "/>
<path clip-path="url(#clip822)" d="M936.901 1004.68 L936.901 1432.1 L1422 1432.1 L1422 1004.68 L936.901 1004.68 L936.901 1004.68  Z" fill="#add8e6" fill-rule="evenodd" fill-opacity="1"/>
<polyline clip-path="url(#clip822)" style="stroke:#000000; stroke-linecap:round; stroke-linejoin:round; stroke-width:4; stroke-opacity:1; fill:none" points="936.901,1004.68 936.901,1432.1 1422,1432.1 1422,1004.68 936.901,1004.68 "/>
<circle clip-path="url(#clip822)" style="fill:#4682b4; stroke:none; fill-opacity:0" cx="573.077" cy="171.344" r="2"/>
<circle clip-path="url(#clip822)" style="fill:#add8e6; stroke:none; fill-opacity:0" cx="1179.45" cy="1004.68" r="2"/>
<path clip-path="url(#clip820)" d="M896.281 912.049 L896.281 887.57 L902.183 887.57 L902.183 920.487 L896.281 920.487 Q892.149 916.494 885.204 909.619 Q878.225 902.709 876.211 900.938 Q872.427 897.57 869.822 896.251 Q867.184 894.897 864.649 894.897 Q860.517 894.897 857.913 897.813 Q855.309 900.695 855.309 905.348 Q855.309 908.647 856.454 912.327 Q857.6 915.973 859.927 920.14 L852.843 920.14 Q851.142 915.903 850.274 912.223 Q849.406 908.542 849.406 905.487 Q849.406 897.431 853.434 892.64 Q857.461 887.848 864.197 887.848 Q867.392 887.848 870.274 889.063 Q873.121 890.244 877.01 893.404 Q878.017 894.272 882.843 898.924 Q887.635 903.577 896.281 912.049 Z" fill="#000000" fill-rule="nonzero" fill-opacity="1" /><path clip-path="url(#clip820)" d="M850.343 872.779 L850.343 845.244 L856.246 845.244 L856.246 866.355 L868.954 866.355 Q868.434 864.827 868.19 863.3 Q867.913 861.772 867.913 860.244 Q867.913 851.563 872.67 846.494 Q877.427 841.425 885.551 841.425 Q893.92 841.425 898.572 846.633 Q903.19 851.841 903.19 861.32 Q903.19 864.584 902.635 867.987 Q902.079 871.355 900.968 874.966 L893.92 874.966 Q895.621 871.841 896.454 868.508 Q897.288 865.175 897.288 861.459 Q897.288 855.452 894.128 851.945 Q890.968 848.438 885.551 848.438 Q880.135 848.438 876.975 851.945 Q873.815 855.452 873.815 861.459 Q873.815 864.272 874.44 867.084 Q875.065 869.862 876.385 872.779 L850.343 872.779 Z" fill="#000000" fill-rule="nonzero" fill-opacity="1" /><path clip-path="url(#clip820)" d="M893.364 827.605 L893.364 820.279 L902.183 820.279 L902.183 827.605 L893.364 827.605 Z" fill="#000000" fill-rule="nonzero" fill-opacity="1" /><path clip-path="url(#clip820)" d="M850.343 806.772 L850.343 773.439 L853.329 773.439 L902.183 792.258 L902.183 799.585 L856.246 781.876 L856.246 806.772 L850.343 806.772 Z" fill="#000000" fill-rule="nonzero" fill-opacity="1" /><path clip-path="url(#clip820)" d="M873.468 743.89 Q873.468 748.613 876.697 751.39 Q879.927 754.133 885.551 754.133 Q891.142 754.133 894.406 751.39 Q897.635 748.613 897.635 743.89 Q897.635 739.168 894.406 736.425 Q891.142 733.647 885.551 733.647 Q879.927 733.647 876.697 736.425 Q873.468 739.168 873.468 743.89 M851.489 729.967 L857.878 729.967 Q856.628 732.606 855.968 735.314 Q855.309 737.988 855.309 740.627 Q855.309 747.571 859.996 751.252 Q864.684 754.897 874.163 755.418 Q871.142 753.37 869.545 750.279 Q867.913 747.189 867.913 743.474 Q867.913 735.661 872.67 731.147 Q877.392 726.599 885.551 726.599 Q893.538 726.599 898.364 731.321 Q903.19 736.043 903.19 743.89 Q903.19 752.883 896.315 757.64 Q889.406 762.397 876.315 762.397 Q864.024 762.397 856.732 756.564 Q849.406 750.731 849.406 740.904 Q849.406 738.265 849.927 735.592 Q850.448 732.884 851.489 729.967 Z" fill="#000000" fill-rule="nonzero" fill-opacity="1" /><path clip-path="url(#clip820)" d="M850.343 716.286 L850.343 682.953 L853.329 682.953 L902.183 701.773 L902.183 709.099 L856.246 691.391 L856.246 716.286 L850.343 716.286 Z" fill="#000000" fill-rule="nonzero" fill-opacity="1" /><path clip-path="url(#clip820)" d="M1483.94 1319.5 Q1483.94 1324.5 1486.61 1327.38 Q1489.28 1330.23 1493.97 1330.23 Q1498.66 1330.23 1501.33 1327.38 Q1504.01 1324.5 1504.01 1319.5 Q1504.01 1314.5 1501.33 1311.61 Q1498.62 1308.73 1493.97 1308.73 Q1489.28 1308.73 1486.61 1311.61 Q1483.94 1314.46 1483.94 1319.5 M1480.95 1326.51 Q1479.84 1331.02 1476.75 1333.56 Q1473.66 1336.06 1469.22 1336.06 Q1463 1336.06 1459.39 1331.65 Q1455.78 1327.2 1455.78 1319.5 Q1455.78 1311.75 1459.39 1307.34 Q1463 1302.93 1469.22 1302.93 Q1473.66 1302.93 1476.75 1305.47 Q1479.84 1307.97 1480.95 1312.45 Q1482.13 1307.38 1485.57 1304.57 Q1489.01 1301.72 1493.97 1301.72 Q1501.51 1301.72 1505.53 1306.34 Q1509.56 1310.92 1509.56 1319.5 Q1509.56 1328.07 1505.53 1332.69 Q1501.51 1337.27 1493.97 1337.27 Q1489.01 1337.27 1485.57 1334.43 Q1482.13 1331.58 1480.95 1326.51 M1469.88 1329.08 Q1473.9 1329.08 1476.16 1326.58 Q1478.42 1324.04 1478.42 1319.5 Q1478.42 1314.98 1476.16 1312.45 Q1473.9 1309.88 1469.88 1309.88 Q1465.85 1309.88 1463.59 1312.45 Q1461.33 1314.98 1461.33 1319.5 Q1461.33 1324.04 1463.59 1326.58 Q1465.85 1329.08 1469.88 1329.08 Z" fill="#000000" fill-rule="nonzero" fill-opacity="1" /><path clip-path="url(#clip820)" d="M1499.74 1289.25 L1499.74 1281.93 L1508.56 1281.93 L1508.56 1289.25 L1499.74 1289.25 Z" fill="#000000" fill-rule="nonzero" fill-opacity="1" /><path clip-path="url(#clip820)" d="M1456.72 1268.42 L1456.72 1235.09 L1459.7 1235.09 L1508.56 1253.91 L1508.56 1261.23 L1462.62 1243.52 L1462.62 1268.42 L1456.72 1268.42 Z" fill="#000000" fill-rule="nonzero" fill-opacity="1" /><path clip-path="url(#clip820)" d="M1480.6 1200.16 Q1481.68 1195.12 1485.08 1192.31 Q1488.49 1189.46 1493.49 1189.46 Q1501.16 1189.46 1505.36 1194.74 Q1509.56 1200.02 1509.56 1209.74 Q1509.56 1213 1508.9 1216.48 Q1508.28 1219.91 1506.99 1223.59 L1500.22 1223.59 Q1501.92 1220.68 1502.79 1217.2 Q1503.66 1213.73 1503.66 1209.95 Q1503.66 1203.35 1501.06 1199.91 Q1498.45 1196.44 1493.49 1196.44 Q1488.9 1196.44 1486.33 1199.67 Q1483.73 1202.86 1483.73 1208.59 L1483.73 1214.64 L1477.97 1214.64 L1477.97 1208.32 Q1477.97 1203.14 1475.92 1200.4 Q1473.83 1197.66 1469.94 1197.66 Q1465.95 1197.66 1463.83 1200.5 Q1461.68 1203.32 1461.68 1208.59 Q1461.68 1211.48 1462.31 1214.77 Q1462.93 1218.07 1464.25 1222.03 L1458 1222.03 Q1456.89 1218.04 1456.33 1214.57 Q1455.78 1211.06 1455.78 1207.97 Q1455.78 1199.98 1459.42 1195.33 Q1463.03 1190.68 1469.22 1190.68 Q1473.52 1190.68 1476.51 1193.14 Q1479.46 1195.61 1480.6 1200.16 Z" fill="#000000" fill-rule="nonzero" fill-opacity="1" /><path clip-path="url(#clip820)" d="M1456.72 1176.09 L1456.72 1148.56 L1462.62 1148.56 L1462.62 1169.67 L1475.33 1169.67 Q1474.81 1168.14 1474.56 1166.61 Q1474.28 1165.09 1474.28 1163.56 Q1474.28 1154.88 1479.04 1149.81 Q1483.8 1144.74 1491.92 1144.74 Q1500.29 1144.74 1504.94 1149.95 Q1509.56 1155.16 1509.56 1164.64 Q1509.56 1167.9 1509.01 1171.3 Q1508.45 1174.67 1507.34 1178.28 L1500.29 1178.28 Q1501.99 1175.16 1502.83 1171.82 Q1503.66 1168.49 1503.66 1164.77 Q1503.66 1158.77 1500.5 1155.26 Q1497.34 1151.75 1491.92 1151.75 Q1486.51 1151.75 1483.35 1155.26 Q1480.19 1158.77 1480.19 1164.77 Q1480.19 1167.59 1480.81 1170.4 Q1481.44 1173.18 1482.76 1176.09 L1456.72 1176.09 Z" fill="#000000" fill-rule="nonzero" fill-opacity="1" /><path clip-path="url(#clip820)" d="M1456.72 1130.85 L1456.72 1103.32 L1462.62 1103.32 L1462.62 1124.43 L1475.33 1124.43 Q1474.81 1122.9 1474.56 1121.37 Q1474.28 1119.84 1474.28 1118.32 Q1474.28 1109.64 1479.04 1104.57 Q1483.8 1099.5 1491.92 1099.5 Q1500.29 1099.5 1504.94 1104.71 Q1509.56 1109.91 1509.56 1119.39 Q1509.56 1122.66 1509.01 1126.06 Q1508.45 1129.43 1507.34 1133.04 L1500.29 1133.04 Q1501.99 1129.91 1502.83 1126.58 Q1503.66 1123.25 1503.66 1119.53 Q1503.66 1113.52 1500.5 1110.02 Q1497.34 1106.51 1491.92 1106.51 Q1486.51 1106.51 1483.35 1110.02 Q1480.19 1113.52 1480.19 1119.53 Q1480.19 1122.34 1480.81 1125.16 Q1481.44 1127.93 1482.76 1130.85 L1456.72 1130.85 Z" fill="#000000" fill-rule="nonzero" fill-opacity="1" /><path clip-path="url(#clip820)" d="M1863.39 1432.1 L3089.76 1432.1 L3089.76 171.344 L1863.39 171.344  Z" fill="#ffffff" fill-rule="evenodd" fill-opacity="1"/>
<polyline clip-path="url(#clip821)" style="stroke:#000000; stroke-linecap:round; stroke-linejoin:round; stroke-width:2; stroke-opacity:0.1; fill:none" points="2173.39,1432.1 2173.39,171.344 "/>
<polyline clip-path="url(#clip821)" style="stroke:#000000; stroke-linecap:round; stroke-linejoin:round; stroke-width:2; stroke-opacity:0.1; fill:none" points="2779.76,1432.1 2779.76,171.344 "/>
<polyline clip-path="url(#clip821)" style="stroke:#000000; stroke-linecap:round; stroke-linejoin:round; stroke-width:2; stroke-opacity:0.1; fill:none" points="1863.39,1386.95 3089.76,1386.95 "/>
<polyline clip-path="url(#clip821)" style="stroke:#000000; stroke-linecap:round; stroke-linejoin:round; stroke-width:2; stroke-opacity:0.1; fill:none" points="1863.39,1206.59 3089.76,1206.59 "/>
<polyline clip-path="url(#clip821)" style="stroke:#000000; stroke-linecap:round; stroke-linejoin:round; stroke-width:2; stroke-opacity:0.1; fill:none" points="1863.39,1026.23 3089.76,1026.23 "/>
<polyline clip-path="url(#clip821)" style="stroke:#000000; stroke-linecap:round; stroke-linejoin:round; stroke-width:2; stroke-opacity:0.1; fill:none" points="1863.39,845.868 3089.76,845.868 "/>
<polyline clip-path="url(#clip821)" style="stroke:#000000; stroke-linecap:round; stroke-linejoin:round; stroke-width:2; stroke-opacity:0.1; fill:none" points="1863.39,665.508 3089.76,665.508 "/>
<polyline clip-path="url(#clip821)" style="stroke:#000000; stroke-linecap:round; stroke-linejoin:round; stroke-width:2; stroke-opacity:0.1; fill:none" points="1863.39,485.147 3089.76,485.147 "/>
<polyline clip-path="url(#clip821)" style="stroke:#000000; stroke-linecap:round; stroke-linejoin:round; stroke-width:2; stroke-opacity:0.1; fill:none" points="1863.39,304.786 3089.76,304.786 "/>
<polyline clip-path="url(#clip820)" style="stroke:#000000; stroke-linecap:round; stroke-linejoin:round; stroke-width:4; stroke-opacity:1; fill:none" points="1863.39,1432.1 3089.76,1432.1 "/>
<polyline clip-path="url(#clip820)" style="stroke:#000000; stroke-linecap:round; stroke-linejoin:round; stroke-width:4; stroke-opacity:1; fill:none" points="2173.39,1432.1 2173.39,1413.2 "/>
<polyline clip-path="url(#clip820)" style="stroke:#000000; stroke-linecap:round; stroke-linejoin:round; stroke-width:4; stroke-opacity:1; fill:none" points="2779.76,1432.1 2779.76,1413.2 "/>
<path clip-path="url(#clip820)" d="M2172.29 1469 L2172.29 1473.93 Q2169.93 1471.73 2167.24 1470.64 Q2164.58 1469.55 2161.57 1469.55 Q2155.65 1469.55 2152.5 1473.19 Q2149.35 1476.8 2149.35 1483.65 Q2149.35 1490.48 2152.5 1494.11 Q2155.65 1497.72 2161.57 1497.72 Q2164.58 1497.72 2167.24 1496.64 Q2169.93 1495.55 2172.29 1493.35 L2172.29 1498.23 Q2169.84 1499.9 2167.08 1500.73 Q2164.35 1501.57 2161.3 1501.57 Q2153.45 1501.57 2148.93 1496.78 Q2144.42 1491.96 2144.42 1483.65 Q2144.42 1475.32 2148.93 1470.53 Q2153.45 1465.71 2161.3 1465.71 Q2164.4 1465.71 2167.13 1466.54 Q2169.88 1467.35 2172.29 1469 Z" fill="#000000" fill-rule="nonzero" fill-opacity="1" /><path clip-path="url(#clip820)" d="M2183.45 1497.01 L2183.45 1510.76 L2179.17 1510.76 L2179.17 1474.97 L2183.45 1474.97 L2183.45 1478.91 Q2184.79 1476.59 2186.83 1475.48 Q2188.89 1474.34 2191.73 1474.34 Q2196.46 1474.34 2199.4 1478.09 Q2202.36 1481.84 2202.36 1487.96 Q2202.36 1494.07 2199.4 1497.82 Q2196.46 1501.57 2191.73 1501.57 Q2188.89 1501.57 2186.83 1500.46 Q2184.79 1499.32 2183.45 1497.01 M2197.94 1487.96 Q2197.94 1483.26 2195.99 1480.59 Q2194.07 1477.91 2190.69 1477.91 Q2187.31 1477.91 2185.37 1480.59 Q2183.45 1483.26 2183.45 1487.96 Q2183.45 1492.66 2185.37 1495.34 Q2187.31 1498 2190.69 1498 Q2194.07 1498 2195.99 1495.34 Q2197.94 1492.66 2197.94 1487.96 Z" fill="#000000" fill-rule="nonzero" fill-opacity="1" /><path clip-path="url(#clip820)" d="M2779.09 1469 L2779.09 1473.93 Q2776.73 1471.73 2774.04 1470.64 Q2771.38 1469.55 2768.37 1469.55 Q2762.45 1469.55 2759.3 1473.19 Q2756.15 1476.8 2756.15 1483.65 Q2756.15 1490.48 2759.3 1494.11 Q2762.45 1497.72 2768.37 1497.72 Q2771.38 1497.72 2774.04 1496.64 Q2776.73 1495.55 2779.09 1493.35 L2779.09 1498.23 Q2776.64 1499.9 2773.88 1500.73 Q2771.15 1501.57 2768.1 1501.57 Q2760.25 1501.57 2755.73 1496.78 Q2751.22 1491.96 2751.22 1483.65 Q2751.22 1475.32 2755.73 1470.53 Q2760.25 1465.71 2768.1 1465.71 Q2771.2 1465.71 2773.93 1466.54 Q2776.68 1467.35 2779.09 1469 Z" fill="#000000" fill-rule="nonzero" fill-opacity="1" /><path clip-path="url(#clip820)" d="M2783.07 1474.97 L2787.59 1474.97 L2795.69 1496.73 L2803.79 1474.97 L2808.3 1474.97 L2798.58 1500.9 L2792.79 1500.9 L2783.07 1474.97 Z" fill="#000000" fill-rule="nonzero" fill-opacity="1" /><polyline clip-path="url(#clip820)" style="stroke:#000000; stroke-linecap:round; stroke-linejoin:round; stroke-width:4; stroke-opacity:1; fill:none" points="1863.39,1432.1 1863.39,171.344 "/>
<polyline clip-path="url(#clip820)" style="stroke:#000000; stroke-linecap:round; stroke-linejoin:round; stroke-width:4; stroke-opacity:1; fill:none" points="1863.39,1386.95 1882.29,1386.95 "/>
<polyline clip-path="url(#clip820)" style="stroke:#000000; stroke-linecap:round; stroke-linejoin:round; stroke-width:4; stroke-opacity:1; fill:none" points="1863.39,1206.59 1882.29,1206.59 "/>
<polyline clip-path="url(#clip820)" style="stroke:#000000; stroke-linecap:round; stroke-linejoin:round; stroke-width:4; stroke-opacity:1; fill:none" points="1863.39,1026.23 1882.29,1026.23 "/>
<polyline clip-path="url(#clip820)" style="stroke:#000000; stroke-linecap:round; stroke-linejoin:round; stroke-width:4; stroke-opacity:1; fill:none" points="1863.39,845.868 1882.29,845.868 "/>
<polyline clip-path="url(#clip820)" style="stroke:#000000; stroke-linecap:round; stroke-linejoin:round; stroke-width:4; stroke-opacity:1; fill:none" points="1863.39,665.508 1882.29,665.508 "/>
<polyline clip-path="url(#clip820)" style="stroke:#000000; stroke-linecap:round; stroke-linejoin:round; stroke-width:4; stroke-opacity:1; fill:none" points="1863.39,485.147 1882.29,485.147 "/>
<polyline clip-path="url(#clip820)" style="stroke:#000000; stroke-linecap:round; stroke-linejoin:round; stroke-width:4; stroke-opacity:1; fill:none" points="1863.39,304.786 1882.29,304.786 "/>
<path clip-path="url(#clip820)" d="M1710.04 1387.4 L1739.72 1387.4 L1739.72 1391.34 L1710.04 1391.34 L1710.04 1387.4 Z" fill="#000000" fill-rule="nonzero" fill-opacity="1" /><path clip-path="url(#clip820)" d="M1759.81 1372.75 Q1756.2 1372.75 1754.37 1376.31 Q1752.56 1379.86 1752.56 1386.98 Q1752.56 1394.09 1754.37 1397.66 Q1756.2 1401.2 1759.81 1401.2 Q1763.44 1401.2 1765.25 1397.66 Q1767.08 1394.09 1767.08 1386.98 Q1767.08 1379.86 1765.25 1376.31 Q1763.44 1372.75 1759.81 1372.75 M1759.81 1369.05 Q1765.62 1369.05 1768.68 1373.65 Q1771.75 1378.23 1771.75 1386.98 Q1771.75 1395.71 1768.68 1400.32 Q1765.62 1404.9 1759.81 1404.9 Q1754 1404.9 1750.92 1400.32 Q1747.87 1395.71 1747.87 1386.98 Q1747.87 1378.23 1750.92 1373.65 Q1754 1369.05 1759.81 1369.05 Z" fill="#000000" fill-rule="nonzero" fill-opacity="1" /><path clip-path="url(#clip820)" d="M1779.97 1398.35 L1784.86 1398.35 L1784.86 1404.23 L1779.97 1404.23 L1779.97 1398.35 Z" fill="#000000" fill-rule="nonzero" fill-opacity="1" /><path clip-path="url(#clip820)" d="M1799.07 1400.29 L1815.39 1400.29 L1815.39 1404.23 L1793.44 1404.23 L1793.44 1400.29 Q1796.11 1397.54 1800.69 1392.91 Q1805.3 1388.26 1806.48 1386.92 Q1808.72 1384.39 1809.6 1382.66 Q1810.5 1380.9 1810.5 1379.21 Q1810.5 1376.45 1808.56 1374.72 Q1806.64 1372.98 1803.54 1372.98 Q1801.34 1372.98 1798.88 1373.74 Q1796.45 1374.51 1793.68 1376.06 L1793.68 1371.34 Q1796.5 1370.2 1798.95 1369.62 Q1801.41 1369.05 1803.44 1369.05 Q1808.81 1369.05 1812.01 1371.73 Q1815.2 1374.42 1815.2 1378.91 Q1815.2 1381.04 1814.39 1382.96 Q1813.61 1384.86 1811.5 1387.45 Q1810.92 1388.12 1807.82 1391.34 Q1804.72 1394.53 1799.07 1400.29 Z" fill="#000000" fill-rule="nonzero" fill-opacity="1" /><path clip-path="url(#clip820)" d="M1709.67 1207.04 L1739.35 1207.04 L1739.35 1210.98 L1709.67 1210.98 L1709.67 1207.04 Z" fill="#000000" fill-rule="nonzero" fill-opacity="1" /><path clip-path="url(#clip820)" d="M1759.44 1192.39 Q1755.83 1192.39 1754 1195.95 Q1752.19 1199.49 1752.19 1206.62 Q1752.19 1213.73 1754 1217.3 Q1755.83 1220.84 1759.44 1220.84 Q1763.07 1220.84 1764.88 1217.3 Q1766.71 1213.73 1766.71 1206.62 Q1766.71 1199.49 1764.88 1195.95 Q1763.07 1192.39 1759.44 1192.39 M1759.44 1188.68 Q1765.25 1188.68 1768.31 1193.29 Q1771.38 1197.87 1771.38 1206.62 Q1771.38 1215.35 1768.31 1219.96 Q1765.25 1224.54 1759.44 1224.54 Q1753.63 1224.54 1750.55 1219.96 Q1747.5 1215.35 1747.5 1206.62 Q1747.5 1197.87 1750.55 1193.29 Q1753.63 1188.68 1759.44 1188.68 Z" fill="#000000" fill-rule="nonzero" fill-opacity="1" /><path clip-path="url(#clip820)" d="M1779.6 1217.99 L1784.49 1217.99 L1784.49 1223.87 L1779.6 1223.87 L1779.6 1217.99 Z" fill="#000000" fill-rule="nonzero" fill-opacity="1" /><path clip-path="url(#clip820)" d="M1795.48 1219.93 L1803.12 1219.93 L1803.12 1193.57 L1794.81 1195.24 L1794.81 1190.98 L1803.07 1189.31 L1807.75 1189.31 L1807.75 1219.93 L1815.39 1219.93 L1815.39 1223.87 L1795.48 1223.87 L1795.48 1219.93 Z" fill="#000000" fill-rule="nonzero" fill-opacity="1" /><path clip-path="url(#clip820)" d="M1758.21 1012.03 Q1754.6 1012.03 1752.77 1015.59 Q1750.97 1019.13 1750.97 1026.26 Q1750.97 1033.37 1752.77 1036.93 Q1754.6 1040.48 1758.21 1040.48 Q1761.85 1040.48 1763.65 1036.93 Q1765.48 1033.37 1765.48 1026.26 Q1765.48 1019.13 1763.65 1015.59 Q1761.85 1012.03 1758.21 1012.03 M1758.21 1008.32 Q1764.02 1008.32 1767.08 1012.93 Q1770.16 1017.51 1770.16 1026.26 Q1770.16 1034.99 1767.08 1039.6 Q1764.02 1044.18 1758.21 1044.18 Q1752.4 1044.18 1749.32 1039.6 Q1746.27 1034.99 1746.27 1026.26 Q1746.27 1017.51 1749.32 1012.93 Q1752.4 1008.32 1758.21 1008.32 Z" fill="#000000" fill-rule="nonzero" fill-opacity="1" /><path clip-path="url(#clip820)" d="M1778.37 1037.63 L1783.26 1037.63 L1783.26 1043.51 L1778.37 1043.51 L1778.37 1037.63 Z" fill="#000000" fill-rule="nonzero" fill-opacity="1" /><path clip-path="url(#clip820)" d="M1803.44 1012.03 Q1799.83 1012.03 1798 1015.59 Q1796.2 1019.13 1796.2 1026.26 Q1796.2 1033.37 1798 1036.93 Q1799.83 1040.48 1803.44 1040.48 Q1807.08 1040.48 1808.88 1036.93 Q1810.71 1033.37 1810.71 1026.26 Q1810.71 1019.13 1808.88 1015.59 Q1807.08 1012.03 1803.44 1012.03 M1803.44 1008.32 Q1809.25 1008.32 1812.31 1012.93 Q1815.39 1017.51 1815.39 1026.26 Q1815.39 1034.99 1812.31 1039.6 Q1809.25 1044.18 1803.44 1044.18 Q1797.63 1044.18 1794.56 1039.6 Q1791.5 1034.99 1791.5 1026.26 Q1791.5 1017.51 1794.56 1012.93 Q1797.63 1008.32 1803.44 1008.32 Z" fill="#000000" fill-rule="nonzero" fill-opacity="1" /><path clip-path="url(#clip820)" d="M1759.44 831.667 Q1755.83 831.667 1754 835.232 Q1752.19 838.773 1752.19 845.903 Q1752.19 853.009 1754 856.574 Q1755.83 860.116 1759.44 860.116 Q1763.07 860.116 1764.88 856.574 Q1766.71 853.009 1766.71 845.903 Q1766.71 838.773 1764.88 835.232 Q1763.07 831.667 1759.44 831.667 M1759.44 827.963 Q1765.25 827.963 1768.31 832.57 Q1771.38 837.153 1771.38 845.903 Q1771.38 854.63 1768.31 859.236 Q1765.25 863.82 1759.44 863.82 Q1753.63 863.82 1750.55 859.236 Q1747.5 854.63 1747.5 845.903 Q1747.5 837.153 1750.55 832.57 Q1753.63 827.963 1759.44 827.963 Z" fill="#000000" fill-rule="nonzero" fill-opacity="1" /><path clip-path="url(#clip820)" d="M1779.6 857.269 L1784.49 857.269 L1784.49 863.148 L1779.6 863.148 L1779.6 857.269 Z" fill="#000000" fill-rule="nonzero" fill-opacity="1" /><path clip-path="url(#clip820)" d="M1795.48 859.213 L1803.12 859.213 L1803.12 832.847 L1794.81 834.514 L1794.81 830.255 L1803.07 828.588 L1807.75 828.588 L1807.75 859.213 L1815.39 859.213 L1815.39 863.148 L1795.48 863.148 L1795.48 859.213 Z" fill="#000000" fill-rule="nonzero" fill-opacity="1" /><path clip-path="url(#clip820)" d="M1759.81 651.306 Q1756.2 651.306 1754.37 654.871 Q1752.56 658.413 1752.56 665.542 Q1752.56 672.649 1754.37 676.214 Q1756.2 679.755 1759.81 679.755 Q1763.44 679.755 1765.25 676.214 Q1767.08 672.649 1767.08 665.542 Q1767.08 658.413 1765.25 654.871 Q1763.44 651.306 1759.81 651.306 M1759.81 647.603 Q1765.62 647.603 1768.68 652.209 Q1771.75 656.792 1771.75 665.542 Q1771.75 674.269 1768.68 678.876 Q1765.62 683.459 1759.81 683.459 Q1754 683.459 1750.92 678.876 Q1747.87 674.269 1747.87 665.542 Q1747.87 656.792 1750.92 652.209 Q1754 647.603 1759.81 647.603 Z" fill="#000000" fill-rule="nonzero" fill-opacity="1" /><path clip-path="url(#clip820)" d="M1779.97 676.908 L1784.86 676.908 L1784.86 682.788 L1779.97 682.788 L1779.97 676.908 Z" fill="#000000" fill-rule="nonzero" fill-opacity="1" /><path clip-path="url(#clip820)" d="M1799.07 678.852 L1815.39 678.852 L1815.39 682.788 L1793.44 682.788 L1793.44 678.852 Q1796.11 676.098 1800.69 671.468 Q1805.3 666.815 1806.48 665.473 Q1808.72 662.95 1809.6 661.214 Q1810.5 659.454 1810.5 657.765 Q1810.5 655.01 1808.56 653.274 Q1806.64 651.538 1803.54 651.538 Q1801.34 651.538 1798.88 652.302 Q1796.45 653.066 1793.68 654.616 L1793.68 649.894 Q1796.5 648.76 1798.95 648.181 Q1801.41 647.603 1803.44 647.603 Q1808.81 647.603 1812.01 650.288 Q1815.2 652.973 1815.2 657.464 Q1815.2 659.593 1814.39 661.515 Q1813.61 663.413 1811.5 666.005 Q1810.92 666.677 1807.82 669.894 Q1804.72 673.089 1799.07 678.852 Z" fill="#000000" fill-rule="nonzero" fill-opacity="1" /><path clip-path="url(#clip820)" d="M1758.86 470.946 Q1755.25 470.946 1753.42 474.51 Q1751.62 478.052 1751.62 485.182 Q1751.62 492.288 1753.42 495.853 Q1755.25 499.395 1758.86 499.395 Q1762.5 499.395 1764.3 495.853 Q1766.13 492.288 1766.13 485.182 Q1766.13 478.052 1764.3 474.51 Q1762.5 470.946 1758.86 470.946 M1758.86 467.242 Q1764.67 467.242 1767.73 471.848 Q1770.81 476.432 1770.81 485.182 Q1770.81 493.908 1767.73 498.515 Q1764.67 503.098 1758.86 503.098 Q1753.05 503.098 1749.97 498.515 Q1746.92 493.908 1746.92 485.182 Q1746.92 476.432 1749.97 471.848 Q1753.05 467.242 1758.86 467.242 Z" fill="#000000" fill-rule="nonzero" fill-opacity="1" /><path clip-path="url(#clip820)" d="M1779.02 496.547 L1783.91 496.547 L1783.91 502.427 L1779.02 502.427 L1779.02 496.547 Z" fill="#000000" fill-rule="nonzero" fill-opacity="1" /><path clip-path="url(#clip820)" d="M1808.26 483.793 Q1811.62 484.51 1813.49 486.779 Q1815.39 489.047 1815.39 492.381 Q1815.39 497.496 1811.87 500.297 Q1808.35 503.098 1801.87 503.098 Q1799.69 503.098 1797.38 502.658 Q1795.09 502.242 1792.63 501.385 L1792.63 496.871 Q1794.58 498.006 1796.89 498.584 Q1799.21 499.163 1801.73 499.163 Q1806.13 499.163 1808.42 497.427 Q1810.74 495.691 1810.74 492.381 Q1810.74 489.325 1808.58 487.612 Q1806.45 485.876 1802.63 485.876 L1798.61 485.876 L1798.61 482.034 L1802.82 482.034 Q1806.27 482.034 1808.1 480.668 Q1809.93 479.279 1809.93 476.686 Q1809.93 474.024 1808.03 472.612 Q1806.15 471.177 1802.63 471.177 Q1800.71 471.177 1798.51 471.594 Q1796.31 472.01 1793.68 472.89 L1793.68 468.723 Q1796.34 467.983 1798.65 467.612 Q1800.99 467.242 1803.05 467.242 Q1808.37 467.242 1811.48 469.673 Q1814.58 472.08 1814.58 476.2 Q1814.58 479.071 1812.93 481.061 Q1811.29 483.029 1808.26 483.793 Z" fill="#000000" fill-rule="nonzero" fill-opacity="1" /><path clip-path="url(#clip820)" d="M1757.73 290.585 Q1754.12 290.585 1752.29 294.15 Q1750.48 297.691 1750.48 304.821 Q1750.48 311.927 1752.29 315.492 Q1754.12 319.034 1757.73 319.034 Q1761.36 319.034 1763.17 315.492 Q1765 311.927 1765 304.821 Q1765 297.691 1763.17 294.15 Q1761.36 290.585 1757.73 290.585 M1757.73 286.881 Q1763.54 286.881 1766.59 291.488 Q1769.67 296.071 1769.67 304.821 Q1769.67 313.548 1766.59 318.154 Q1763.54 322.738 1757.73 322.738 Q1751.92 322.738 1748.84 318.154 Q1745.78 313.548 1745.78 304.821 Q1745.78 296.071 1748.84 291.488 Q1751.92 286.881 1757.73 286.881 Z" fill="#000000" fill-rule="nonzero" fill-opacity="1" /><path clip-path="url(#clip820)" d="M1777.89 316.187 L1782.77 316.187 L1782.77 322.066 L1777.89 322.066 L1777.89 316.187 Z" fill="#000000" fill-rule="nonzero" fill-opacity="1" /><path clip-path="url(#clip820)" d="M1805.81 291.58 L1794 310.029 L1805.81 310.029 L1805.81 291.58 M1804.58 287.506 L1810.46 287.506 L1810.46 310.029 L1815.39 310.029 L1815.39 313.918 L1810.46 313.918 L1810.46 322.066 L1805.81 322.066 L1805.81 313.918 L1790.2 313.918 L1790.2 309.404 L1804.58 287.506 Z" fill="#000000" fill-rule="nonzero" fill-opacity="1" /><path clip-path="url(#clip820)" d="M2179.4 14.0809 L2179.4 22.0612 Q2174.74 19.8332 2170.61 18.7395 Q2166.48 17.6457 2162.63 17.6457 Q2155.95 17.6457 2152.3 20.2383 Q2148.7 22.8309 2148.7 27.611 Q2148.7 31.6214 2151.09 33.6873 Q2153.52 35.7128 2160.24 36.9686 L2165.18 37.9813 Q2174.34 39.7232 2178.67 44.1387 Q2183.05 48.5136 2183.05 55.8863 Q2183.05 64.6767 2177.13 69.2137 Q2171.26 73.7508 2159.88 73.7508 Q2155.58 73.7508 2150.72 72.7785 Q2145.9 71.8063 2140.72 69.9024 L2140.72 61.4765 Q2145.7 64.2716 2150.48 65.6895 Q2155.26 67.1073 2159.88 67.1073 Q2166.88 67.1073 2170.69 64.3527 Q2174.5 61.598 2174.5 56.4939 Q2174.5 52.0379 2171.75 49.5264 Q2169.03 47.0148 2162.79 45.759 L2157.81 44.7868 Q2148.66 42.9639 2144.56 39.075 Q2140.47 35.1862 2140.47 28.2591 Q2140.47 20.2383 2146.1 15.6203 Q2151.77 11.0023 2161.7 11.0023 Q2165.95 11.0023 2170.37 11.7719 Q2174.78 12.5416 2179.4 14.0809 Z" fill="#000000" fill-rule="nonzero" fill-opacity="1" /><path clip-path="url(#clip820)" d="M2202.86 14.324 L2202.86 27.2059 L2218.21 27.2059 L2218.21 32.9987 L2202.86 32.9987 L2202.86 57.6282 Q2202.86 63.1779 2204.36 64.7578 Q2205.89 66.3376 2210.55 66.3376 L2218.21 66.3376 L2218.21 72.576 L2210.55 72.576 Q2201.92 72.576 2198.64 69.3758 Q2195.36 66.1351 2195.36 57.6282 L2195.36 32.9987 L2189.89 32.9987 L2189.89 27.2059 L2195.36 27.2059 L2195.36 14.324 L2202.86 14.324 Z" fill="#000000" fill-rule="nonzero" fill-opacity="1" /><path clip-path="url(#clip820)" d="M2248.63 49.7694 Q2239.6 49.7694 2236.11 51.8354 Q2232.63 53.9013 2232.63 58.8839 Q2232.63 62.8538 2235.22 65.2034 Q2237.86 67.5124 2242.35 67.5124 Q2248.55 67.5124 2252.28 63.1374 Q2256.04 58.7219 2256.04 51.4303 L2256.04 49.7694 L2248.63 49.7694 M2263.5 46.6907 L2263.5 72.576 L2256.04 72.576 L2256.04 65.6895 Q2253.49 69.8214 2249.68 71.8063 Q2245.88 73.7508 2240.37 73.7508 Q2233.4 73.7508 2229.27 69.8619 Q2225.18 65.9325 2225.18 59.3701 Q2225.18 51.7138 2230.28 47.825 Q2235.43 43.9361 2245.59 43.9361 L2256.04 43.9361 L2256.04 43.2069 Q2256.04 38.0623 2252.64 35.2672 Q2249.28 32.4315 2243.16 32.4315 Q2239.27 32.4315 2235.59 33.3632 Q2231.9 34.295 2228.5 36.1584 L2228.5 29.2718 Q2232.59 27.692 2236.44 26.9223 Q2240.29 26.1121 2243.93 26.1121 Q2253.78 26.1121 2258.64 31.2163 Q2263.5 36.3204 2263.5 46.6907 Z" fill="#000000" fill-rule="nonzero" fill-opacity="1" /><path clip-path="url(#clip820)" d="M2286.22 14.324 L2286.22 27.2059 L2301.58 27.2059 L2301.58 32.9987 L2286.22 32.9987 L2286.22 57.6282 Q2286.22 63.1779 2287.72 64.7578 Q2289.26 66.3376 2293.92 66.3376 L2301.58 66.3376 L2301.58 72.576 L2293.92 72.576 Q2285.29 72.576 2282.01 69.3758 Q2278.73 66.1351 2278.73 57.6282 L2278.73 32.9987 L2273.26 32.9987 L2273.26 27.2059 L2278.73 27.2059 L2278.73 14.324 L2286.22 14.324 Z" fill="#000000" fill-rule="nonzero" fill-opacity="1" /><path clip-path="url(#clip820)" d="M2311.38 27.2059 L2318.83 27.2059 L2318.83 72.576 L2311.38 72.576 L2311.38 27.2059 M2311.38 9.54393 L2318.83 9.54393 L2318.83 18.9825 L2311.38 18.9825 L2311.38 9.54393 Z" fill="#000000" fill-rule="nonzero" fill-opacity="1" /><path clip-path="url(#clip820)" d="M2363.35 28.5427 L2363.35 35.5912 Q2360.19 33.9709 2356.79 33.1607 Q2353.39 32.3505 2349.74 32.3505 Q2344.19 32.3505 2341.4 34.0519 Q2338.64 35.7533 2338.64 39.156 Q2338.64 41.7486 2340.63 43.2475 Q2342.61 44.7058 2348.61 46.0426 L2351.16 46.6097 Q2359.1 48.3111 2362.42 51.4303 Q2365.78 54.509 2365.78 60.0587 Q2365.78 66.3781 2360.76 70.0644 Q2355.78 73.7508 2347.03 73.7508 Q2343.38 73.7508 2339.41 73.0216 Q2335.48 72.3329 2331.11 70.9151 L2331.11 63.2184 Q2335.24 65.3654 2339.25 66.4591 Q2343.26 67.5124 2347.19 67.5124 Q2352.46 67.5124 2355.29 65.73 Q2358.13 63.9071 2358.13 60.6258 Q2358.13 57.5877 2356.06 55.9673 Q2354.04 54.3469 2347.11 52.8481 L2344.52 52.2405 Q2337.59 50.7821 2334.51 47.7845 Q2331.43 44.7463 2331.43 39.4801 Q2331.43 33.0797 2335.97 29.5959 Q2340.51 26.1121 2348.85 26.1121 Q2352.98 26.1121 2356.63 26.7198 Q2360.27 27.3274 2363.35 28.5427 Z" fill="#000000" fill-rule="nonzero" fill-opacity="1" /><path clip-path="url(#clip820)" d="M2385.03 14.324 L2385.03 27.2059 L2400.38 27.2059 L2400.38 32.9987 L2385.03 32.9987 L2385.03 57.6282 Q2385.03 63.1779 2386.52 64.7578 Q2388.06 66.3376 2392.72 66.3376 L2400.38 66.3376 L2400.38 72.576 L2392.72 72.576 Q2384.09 72.576 2380.81 69.3758 Q2377.53 66.1351 2377.53 57.6282 L2377.53 32.9987 L2372.06 32.9987 L2372.06 27.2059 L2377.53 27.2059 L2377.53 14.324 L2385.03 14.324 Z" fill="#000000" fill-rule="nonzero" fill-opacity="1" /><path clip-path="url(#clip820)" d="M2410.18 27.2059 L2417.64 27.2059 L2417.64 72.576 L2410.18 72.576 L2410.18 27.2059 M2410.18 9.54393 L2417.64 9.54393 L2417.64 18.9825 L2410.18 18.9825 L2410.18 9.54393 Z" fill="#000000" fill-rule="nonzero" fill-opacity="1" /><path clip-path="url(#clip820)" d="M2465.88 28.9478 L2465.88 35.9153 Q2462.72 34.1734 2459.52 33.3227 Q2456.36 32.4315 2453.12 32.4315 Q2445.87 32.4315 2441.86 37.0496 Q2437.85 41.6271 2437.85 49.9314 Q2437.85 58.2358 2441.86 62.8538 Q2445.87 67.4314 2453.12 67.4314 Q2456.36 67.4314 2459.52 66.5807 Q2462.72 65.6895 2465.88 63.9476 L2465.88 70.8341 Q2462.76 72.2924 2459.4 73.0216 Q2456.08 73.7508 2452.31 73.7508 Q2442.06 73.7508 2436.03 67.3098 Q2429.99 60.8689 2429.99 49.9314 Q2429.99 38.832 2436.07 32.472 Q2442.18 26.1121 2452.8 26.1121 Q2456.24 26.1121 2459.52 26.8413 Q2462.8 27.5299 2465.88 28.9478 Z" fill="#000000" fill-rule="nonzero" fill-opacity="1" /><path clip-path="url(#clip820)" d="M2499.46 49.7694 Q2490.43 49.7694 2486.95 51.8354 Q2483.46 53.9013 2483.46 58.8839 Q2483.46 62.8538 2486.06 65.2034 Q2488.69 67.5124 2493.18 67.5124 Q2499.38 67.5124 2503.11 63.1374 Q2506.88 58.7219 2506.88 51.4303 L2506.88 49.7694 L2499.46 49.7694 M2514.33 46.6907 L2514.33 72.576 L2506.88 72.576 L2506.88 65.6895 Q2504.32 69.8214 2500.52 71.8063 Q2496.71 73.7508 2491.2 73.7508 Q2484.23 73.7508 2480.1 69.8619 Q2476.01 65.9325 2476.01 59.3701 Q2476.01 51.7138 2481.11 47.825 Q2486.26 43.9361 2496.43 43.9361 L2506.88 43.9361 L2506.88 43.2069 Q2506.88 38.0623 2503.47 35.2672 Q2500.11 32.4315 2494 32.4315 Q2490.11 32.4315 2486.42 33.3632 Q2482.73 34.295 2479.33 36.1584 L2479.33 29.2718 Q2483.42 27.692 2487.27 26.9223 Q2491.12 26.1121 2494.76 26.1121 Q2504.61 26.1121 2509.47 31.2163 Q2514.33 36.3204 2514.33 46.6907 Z" fill="#000000" fill-rule="nonzero" fill-opacity="1" /><path clip-path="url(#clip820)" d="M2529.68 9.54393 L2537.14 9.54393 L2537.14 72.576 L2529.68 72.576 L2529.68 9.54393 Z" fill="#000000" fill-rule="nonzero" fill-opacity="1" /><path clip-path="url(#clip820)" d="M2579.43 12.096 L2617.67 12.096 L2617.67 18.9825 L2587.61 18.9825 L2587.61 36.8875 L2616.41 36.8875 L2616.41 43.7741 L2587.61 43.7741 L2587.61 65.6895 L2618.4 65.6895 L2618.4 72.576 L2579.43 72.576 L2579.43 12.096 Z" fill="#000000" fill-rule="nonzero" fill-opacity="1" /><path clip-path="url(#clip820)" d="M2657.81 34.1734 Q2656.56 33.4443 2655.06 33.1202 Q2653.6 32.7556 2651.82 32.7556 Q2645.5 32.7556 2642.1 36.8875 Q2638.73 40.9789 2638.73 48.6757 L2638.73 72.576 L2631.24 72.576 L2631.24 27.2059 L2638.73 27.2059 L2638.73 34.2544 Q2641.08 30.1225 2644.85 28.1376 Q2648.62 26.1121 2654.01 26.1121 Q2654.78 26.1121 2655.71 26.2337 Q2656.64 26.3147 2657.77 26.5172 L2657.81 34.1734 Z" fill="#000000" fill-rule="nonzero" fill-opacity="1" /><path clip-path="url(#clip820)" d="M2690.46 34.1734 Q2689.21 33.4443 2687.71 33.1202 Q2686.25 32.7556 2684.47 32.7556 Q2678.15 32.7556 2674.75 36.8875 Q2671.38 40.9789 2671.38 48.6757 L2671.38 72.576 L2663.89 72.576 L2663.89 27.2059 L2671.38 27.2059 L2671.38 34.2544 Q2673.73 30.1225 2677.5 28.1376 Q2681.27 26.1121 2686.66 26.1121 Q2687.43 26.1121 2688.36 26.2337 Q2689.29 26.3147 2690.42 26.5172 L2690.46 34.1734 Z" fill="#000000" fill-rule="nonzero" fill-opacity="1" /><path clip-path="url(#clip820)" d="M2714.04 32.4315 Q2708.04 32.4315 2704.56 37.1306 Q2701.08 41.7891 2701.08 49.9314 Q2701.08 58.0738 2704.52 62.7728 Q2708 67.4314 2714.04 67.4314 Q2719.99 67.4314 2723.48 62.7323 Q2726.96 58.0333 2726.96 49.9314 Q2726.96 41.8701 2723.48 37.1711 Q2719.99 32.4315 2714.04 32.4315 M2714.04 26.1121 Q2723.76 26.1121 2729.31 32.4315 Q2734.86 38.7509 2734.86 49.9314 Q2734.86 61.0714 2729.31 67.4314 Q2723.76 73.7508 2714.04 73.7508 Q2704.28 73.7508 2698.73 67.4314 Q2693.22 61.0714 2693.22 49.9314 Q2693.22 38.7509 2698.73 32.4315 Q2704.28 26.1121 2714.04 26.1121 Z" fill="#000000" fill-rule="nonzero" fill-opacity="1" /><path clip-path="url(#clip820)" d="M2773.51 34.1734 Q2772.25 33.4443 2770.75 33.1202 Q2769.29 32.7556 2767.51 32.7556 Q2761.19 32.7556 2757.79 36.8875 Q2754.43 40.9789 2754.43 48.6757 L2754.43 72.576 L2746.93 72.576 L2746.93 27.2059 L2754.43 27.2059 L2754.43 34.2544 Q2756.78 30.1225 2760.54 28.1376 Q2764.31 26.1121 2769.7 26.1121 Q2770.47 26.1121 2771.4 26.2337 Q2772.33 26.3147 2773.47 26.5172 L2773.51 34.1734 Z" fill="#000000" fill-rule="nonzero" fill-opacity="1" /><path clip-path="url(#clip820)" d="M2810.25 28.5427 L2810.25 35.5912 Q2807.09 33.9709 2803.69 33.1607 Q2800.28 32.3505 2796.64 32.3505 Q2791.09 32.3505 2788.29 34.0519 Q2785.54 35.7533 2785.54 39.156 Q2785.54 41.7486 2787.52 43.2475 Q2789.51 44.7058 2795.5 46.0426 L2798.06 46.6097 Q2806 48.3111 2809.32 51.4303 Q2812.68 54.509 2812.68 60.0587 Q2812.68 66.3781 2807.66 70.0644 Q2802.67 73.7508 2793.92 73.7508 Q2790.28 73.7508 2786.31 73.0216 Q2782.38 72.3329 2778 70.9151 L2778 63.2184 Q2782.14 65.3654 2786.15 66.4591 Q2790.16 67.5124 2794.09 67.5124 Q2799.35 67.5124 2802.19 65.73 Q2805.02 63.9071 2805.02 60.6258 Q2805.02 57.5877 2802.96 55.9673 Q2800.93 54.3469 2794 52.8481 L2791.41 52.2405 Q2784.49 50.7821 2781.41 47.7845 Q2778.33 44.7463 2778.33 39.4801 Q2778.33 33.0797 2782.87 29.5959 Q2787.4 26.1121 2795.75 26.1121 Q2799.88 26.1121 2803.52 26.7198 Q2807.17 27.3274 2810.25 28.5427 Z" fill="#000000" fill-rule="nonzero" fill-opacity="1" /><path clip-path="url(#clip821)" d="M1930.84 171.344 L1930.84 1026.23 L2415.94 1026.23 L2415.94 171.344 L1930.84 171.344 L1930.84 171.344  Z" fill="#cd5c5c" fill-rule="evenodd" fill-opacity="1"/>
<polyline clip-path="url(#clip821)" style="stroke:#000000; stroke-linecap:round; stroke-linejoin:round; stroke-width:4; stroke-opacity:1; fill:none" points="1930.84,171.344 1930.84,1026.23 2415.94,1026.23 2415.94,171.344 1930.84,171.344 "/>
<path clip-path="url(#clip821)" d="M2537.21 1432.1 L2537.21 1026.23 L3022.31 1026.23 L3022.31 1432.1 L2537.21 1432.1 L2537.21 1432.1  Z" fill="#f08080" fill-rule="evenodd" fill-opacity="1"/>
<polyline clip-path="url(#clip821)" style="stroke:#000000; stroke-linecap:round; stroke-linejoin:round; stroke-width:4; stroke-opacity:1; fill:none" points="2537.21,1432.1 2537.21,1026.23 3022.31,1026.23 3022.31,1432.1 2537.21,1432.1 "/>
<circle clip-path="url(#clip821)" style="fill:#cd5c5c; stroke:none; fill-opacity:0" cx="2173.39" cy="171.344" r="2"/>
<circle clip-path="url(#clip821)" style="fill:#f08080; stroke:none; fill-opacity:0" cx="2779.76" cy="1432.1" r="2"/>
<path clip-path="url(#clip820)" d="M2455.27 678.317 Q2455.27 683.734 2460.62 686.477 Q2465.93 689.185 2476.63 689.185 Q2487.29 689.185 2492.64 686.477 Q2497.95 683.734 2497.95 678.317 Q2497.95 672.866 2492.64 670.158 Q2487.29 667.415 2476.63 667.415 Q2465.93 667.415 2460.62 670.158 Q2455.27 672.866 2455.27 678.317 M2449.72 678.317 Q2449.72 669.602 2456.63 665.019 Q2463.5 660.401 2476.63 660.401 Q2489.72 660.401 2496.63 665.019 Q2503.5 669.602 2503.5 678.317 Q2503.5 687.033 2496.63 691.651 Q2489.72 696.234 2476.63 696.234 Q2463.5 696.234 2456.63 691.651 Q2449.72 687.033 2449.72 678.317 Z" fill="#000000" fill-rule="nonzero" fill-opacity="1" /><path clip-path="url(#clip820)" d="M2493.68 648.074 L2493.68 640.748 L2502.5 640.748 L2502.5 648.074 L2493.68 648.074 Z" fill="#000000" fill-rule="nonzero" fill-opacity="1" /><path clip-path="url(#clip820)" d="M2456.77 606.2 L2484.44 623.908 L2484.44 606.2 L2456.77 606.2 M2450.66 608.04 L2450.66 599.221 L2484.44 599.221 L2484.44 591.825 L2490.27 591.825 L2490.27 599.221 L2502.5 599.221 L2502.5 606.2 L2490.27 606.2 L2490.27 629.602 L2483.5 629.602 L2450.66 608.04 Z" fill="#000000" fill-rule="nonzero" fill-opacity="1" /><path clip-path="url(#clip820)" d="M2450.66 581.998 L2450.66 548.665 L2453.64 548.665 L2502.5 567.485 L2502.5 574.811 L2456.56 557.103 L2456.56 581.998 L2450.66 581.998 Z" fill="#000000" fill-rule="nonzero" fill-opacity="1" /><path clip-path="url(#clip820)" d="M2456.77 515.714 L2484.44 533.422 L2484.44 515.714 L2456.77 515.714 M2450.66 517.554 L2450.66 508.735 L2484.44 508.735 L2484.44 501.339 L2490.27 501.339 L2490.27 508.735 L2502.5 508.735 L2502.5 515.714 L2490.27 515.714 L2490.27 539.117 L2483.5 539.117 L2450.66 517.554 Z" fill="#000000" fill-rule="nonzero" fill-opacity="1" /><path clip-path="url(#clip820)" d="M3086.54 1338.94 L3086.54 1320.22 L3092.24 1320.22 L3092.24 1338.94 L3086.54 1338.94 Z" fill="#000000" fill-rule="nonzero" fill-opacity="1" /><path clip-path="url(#clip820)" d="M3061.65 1294.14 Q3061.65 1299.56 3066.99 1302.3 Q3072.31 1305.01 3083 1305.01 Q3093.66 1305.01 3099.01 1302.3 Q3104.32 1299.56 3104.32 1294.14 Q3104.32 1288.69 3099.01 1285.98 Q3093.66 1283.24 3083 1283.24 Q3072.31 1283.24 3066.99 1285.98 Q3061.65 1288.69 3061.65 1294.14 M3056.09 1294.14 Q3056.09 1285.43 3063 1280.85 Q3069.88 1276.23 3083 1276.23 Q3096.09 1276.23 3103 1280.85 Q3109.88 1285.43 3109.88 1294.14 Q3109.88 1302.86 3103 1307.48 Q3096.09 1312.06 3083 1312.06 Q3069.88 1312.06 3063 1307.48 Q3056.09 1302.86 3056.09 1294.14 Z" fill="#000000" fill-rule="nonzero" fill-opacity="1" /><path clip-path="url(#clip820)" d="M3100.05 1263.9 L3100.05 1256.58 L3108.87 1256.58 L3108.87 1263.9 L3100.05 1263.9 Z" fill="#000000" fill-rule="nonzero" fill-opacity="1" /><path clip-path="url(#clip820)" d="M3102.97 1235.26 L3102.97 1210.78 L3108.87 1210.78 L3108.87 1243.69 L3102.97 1243.69 Q3098.83 1239.7 3091.89 1232.83 Q3084.91 1225.92 3082.9 1224.14 Q3079.11 1220.78 3076.51 1219.46 Q3073.87 1218.1 3071.33 1218.1 Q3067.2 1218.1 3064.6 1221.02 Q3061.99 1223.9 3061.99 1228.55 Q3061.99 1231.85 3063.14 1235.53 Q3064.29 1239.18 3066.61 1243.35 L3059.53 1243.35 Q3057.83 1239.11 3056.96 1235.43 Q3056.09 1231.75 3056.09 1228.69 Q3056.09 1220.64 3060.12 1215.85 Q3064.15 1211.05 3070.88 1211.05 Q3074.08 1211.05 3076.96 1212.27 Q3079.81 1213.45 3083.69 1216.61 Q3084.7 1217.48 3089.53 1222.13 Q3094.32 1226.78 3102.97 1235.26 Z" fill="#000000" fill-rule="nonzero" fill-opacity="1" /><path clip-path="url(#clip820)" d="M3102.97 1190.01 L3102.97 1165.53 L3108.87 1165.53 L3108.87 1198.45 L3102.97 1198.45 Q3098.83 1194.46 3091.89 1187.58 Q3084.91 1180.67 3082.9 1178.9 Q3079.11 1175.53 3076.51 1174.21 Q3073.87 1172.86 3071.33 1172.86 Q3067.2 1172.86 3064.6 1175.78 Q3061.99 1178.66 3061.99 1183.31 Q3061.99 1186.61 3063.14 1190.29 Q3064.29 1193.94 3066.61 1198.1 L3059.53 1198.1 Q3057.83 1193.87 3056.96 1190.19 Q3056.09 1186.51 3056.09 1183.45 Q3056.09 1175.4 3060.12 1170.6 Q3064.15 1165.81 3070.88 1165.81 Q3074.08 1165.81 3076.96 1167.03 Q3079.81 1168.21 3083.69 1171.37 Q3084.7 1172.24 3089.53 1176.89 Q3094.32 1181.54 3102.97 1190.01 Z" fill="#000000" fill-rule="nonzero" fill-opacity="1" /><path clip-path="url(#clip820)" d="M3057.03 1150.74 L3057.03 1123.21 L3062.93 1123.21 L3062.93 1144.32 L3075.64 1144.32 Q3075.12 1142.79 3074.88 1141.26 Q3074.6 1139.74 3074.6 1138.21 Q3074.6 1129.53 3079.35 1124.46 Q3084.11 1119.39 3092.24 1119.39 Q3100.6 1119.39 3105.26 1124.6 Q3109.88 1129.81 3109.88 1139.28 Q3109.88 1142.55 3109.32 1145.95 Q3108.76 1149.32 3107.65 1152.93 L3100.6 1152.93 Q3102.31 1149.81 3103.14 1146.47 Q3103.97 1143.14 3103.97 1139.42 Q3103.97 1133.42 3100.81 1129.91 Q3097.65 1126.4 3092.24 1126.4 Q3086.82 1126.4 3083.66 1129.91 Q3080.5 1133.42 3080.5 1139.42 Q3080.5 1142.24 3081.13 1145.05 Q3081.75 1147.83 3083.07 1150.74 L3057.03 1150.74 Z" fill="#000000" fill-rule="nonzero" fill-opacity="1" /></svg>
